Coordinates
version=1
nRows=24
nColumns=19
inDegrees=yes

Units are S.I. units (second, meters, Newtons, ...)
If the header above contains a line with 'inDegrees', this indicates whether rotational values are in degrees (yes) or radians (no).

endheader
time	subtalar_angle_l	subtalar_angle_r	pelvis_list	pelvis_rotation	pelvis_tilt	pelvis_tx	pelvis_ty	pelvis_tz	hip_flexion_l	hip_adduction_l	hip_rotation_l	hip_flexion_r	hip_adduction_r	hip_rotation_r	knee_flexion_l	knee_flexion_r	ankle_angle_l	ankle_angle_r
      4.95000000	      1.31095181	      8.82324897	     86.81377337	     -5.68465489	      2.40726339	      0.93360900	     -0.64158666	      0.64184375	     17.67706603	      2.47835339	    -14.42016876	    -18.34320750	      2.08492634	     25.33562798	    -23.91047887	    -12.01425570	    -11.18328137	    -30.93952663
      4.96000000	      1.72407934	      8.69682413	     87.80221290	     -5.01910982	      1.96891662	      0.94395496	     -0.64115975	      0.64163038	     16.98411262	      1.46567314	    -14.37104275	    -16.97898336	      1.65636723	     24.14924823	    -23.40939302	    -14.65320752	    -11.04969856	    -31.52222197
      4.97000000	      2.80474723	      9.29524821	     88.82097317	     -4.28915432	      1.37756624	      0.95404459	     -0.64059151	      0.64172459	     16.40157745	      0.45094759	    -14.26032675	    -15.29552890	      1.20516471	     22.86145651	    -22.75085047	    -17.45204321	    -10.80950490	    -32.75833521
      4.98000000	      3.18957400	      9.12693782	     89.87690557	     -3.44062221	      0.87646206	      0.96385357	     -0.63990402	      0.64204214	     15.62636627	     -0.62252190	    -14.34989221	    -13.56979404	      0.69972242	     21.41877004	    -21.88544330	    -20.38080619	    -10.77376456	    -33.11493700
      4.99000000	      4.13141102	      9.76011636	     90.88186896	     -2.61344937	      0.20717871	      0.97334840	     -0.63905345	      0.64262344	     14.99527436	     -1.61017602	    -14.30875241	    -11.51624266	      0.18279262	     19.94505114	    -20.88324417	    -23.42250227	    -10.83611679	    -33.85111018
      5.00000000	      4.60056681	      9.77842219	     91.83901636	     -1.72169288	     -0.34185496	      0.98256811	     -0.63809833	      0.64341772	     14.11179551	     -2.58485462	    -14.53025173	     -9.52194756	     -0.34972111	     18.46771300	    -19.65531794	    -26.43612884	    -10.87016785	    -33.97731679
      5.01000000	      4.94776098	      9.68116146	     92.67828466	     -0.84531549	     -0.76532393	      0.99149375	     -0.63702831	      0.64434562	     13.11444562	     -3.41483780	    -14.60515206	     -7.55695147	     -0.87173430	     16.93753407	    -18.39844161	    -29.44246568	    -10.93217373	    -33.99728520
      5.02000000	      5.29932855	      9.63929144	     93.38564682	     -0.00928852	     -1.22681973	      1.00014908	     -0.63584941	      0.64546234	     12.09457295	     -4.12549170	    -14.76021177	     -5.48645964	     -1.34815667	     15.52236247	    -17.01729705	    -32.34979248	    -11.04699635	    -33.83313542
      5.03000000	      5.63712565	      9.67912009	     93.94088825	      0.75971464	     -1.68294934	      1.00853809	     -0.63459420	      0.64673455	     11.02627381	     -4.69197146	    -14.98521419	     -3.35642657	     -1.75335880	     14.24618731	    -15.54883016	    -35.12007470	    -11.24653366	    -33.30462915
      5.04000000	      5.80109976	      9.79183963	     94.32704385	      1.50006266	     -1.99731992	      1.01671977	     -0.63329091	      0.64806213	      9.87796319	     -5.06917944	    -15.03540386	     -1.31507920	     -2.10494145	     12.90959000	    -14.14364275	    -37.72075745	    -11.54772170	    -32.14975176
      5.05000000	      5.86912421	      9.59431781	     94.56423177	      2.19199947	     -2.27335991	      1.02468194	     -0.63195479	      0.64947191	      8.67262581	     -5.31854940	    -15.27229470	      0.72798644	     -2.36887697	     11.70261621	    -12.72119342	    -40.10738976	    -11.66479428	    -31.29383000
      5.06000000	      5.95386533	      9.30065283	     94.64125741	      2.91129229	     -2.48385046	      1.03245490	     -0.63063273	      0.65087428	      7.50839941	     -5.40635001	    -15.52403033	      2.74536901	     -2.57253202	     10.37082037	    -11.46358019	    -42.27381622	    -11.74220129	    -30.56685112
      5.07000000	      5.80914673	      8.87203576	     94.62403686	      3.48561210	     -2.62045565	      1.04006637	     -0.62929366	      0.65225382	      6.31518364	     -5.37466660	    -15.63008540	      4.75426291	     -2.72251370	      9.26026814	    -10.24400311	    -44.24421701	    -12.00598957	    -28.86776619
      5.08000000	      5.85531975	      8.56346771	     94.48774503	      4.12419499	     -2.75622863	      1.04753709	     -0.62801615	      0.65358744	      5.20572058	     -5.22401809	    -15.94704974	      6.78562787	     -2.84163114	      7.97566729	     -9.16844689	    -45.96806360	    -12.09995590	    -28.04194423
      5.09000000	      5.68014556	      8.11257027	     94.31074611	      4.67479011	     -2.76834578	      1.05489398	     -0.62676120	      0.65478238	      4.08418213	     -4.99907606	    -16.03703353	      8.74768157	     -2.96989115	      6.77874430	     -8.23798552	    -47.51545811	    -12.38019250	    -26.32205980
      5.10000000	      5.76849754	      7.83585981	     94.07379185	      5.24378247	     -2.84184216	      1.06215640	     -0.62557778	      0.65590292	      3.05128972	     -4.70037618	    -16.38756653	     10.79076951	     -3.08431366	      5.54982350	     -7.35159617	    -48.83253264	    -12.47900345	    -25.55885676
      5.11000000	      5.82949054	      7.47724265	     93.84034636	      5.78146364	     -2.85820912	      1.06934778	     -0.62445381	      0.65684304	      2.03794490	     -4.37551373	    -16.69317185	     12.81076863	     -3.24444868	      4.35805130	     -6.57535418	    -49.98833335	    -12.66580645	    -24.39466277
      5.12000000	      5.77978299	      7.10256527	     93.63304403	      6.27658681	     -2.72643145	      1.07649272	     -0.62338225	      0.65755586	      0.98246209	     -4.04463844	    -16.78191170	     14.71195934	     -3.46701151	      3.22605205	     -5.95723004	    -51.01093179	    -12.97656660	    -22.85585065
      5.13000000	      5.92034669	      6.89071389	     93.43380023	      6.78266982	     -2.69084740	      1.08360007	     -0.62240042	      0.65813615	     -0.00368708	     -3.69795251	    -17.16350061	     16.71533604	     -3.70543116	      2.16493250	     -5.30423067	    -51.84917896	    -13.09035013	    -22.24261195
      5.14000000	      6.06309076	      6.61020490	     93.28636157	      7.26959091	     -2.59617295	      1.09069395	     -0.62148902	      0.65849770	     -1.01709122	     -3.37487148	    -17.51386724	     18.66982525	     -4.00348086	      1.21762158	     -4.70773344	    -52.55738430	    -13.27933763	    -21.36997686
      5.15000000	      6.13950806	      6.29262619	     93.21007165	      7.72053178	     -2.38559343	      1.09779212	     -0.62063738	      0.65861283	     -2.09770740	     -3.09867973	    -17.69154868	     20.51462630	     -4.37070167	      0.42079299	     -4.19832008	    -53.15064289	    -13.58414829	    -20.21426520
      5.16000000	      6.30596520	      6.11873087	     93.16289227	      8.17263341	     -2.24877337	      1.10491228	     -0.61988080	      0.65858439	     -3.15381309	     -2.82387184	    -18.07426026	     22.40556903	     -4.73075592	     -0.20159083	     -3.62580016	    -53.54952569	    -13.70264357	    -19.76211574
      5.17000000	      6.47777878	      5.92264257	     93.18457205	      8.60523422	     -2.05818064	      1.11206880	     -0.61918618	      0.65834776	     -4.26960471	     -2.59715385	    -18.42440891	     24.21205961	     -5.12781908	     -0.62925004	     -3.06597464	    -53.78728431	    -13.85189915	    -19.26902203
      5.18000000	      6.61500561	      5.80994509	     93.31130088	      8.95553398	     -1.82589371	      1.11926405	     -0.61852798	      0.65788775	     -5.41765374	     -2.46983384	    -18.57675702	     25.94735506	     -5.55042009	     -0.74627189	     -2.54729724	    -53.86369172	    -13.92841002	    -19.02202818
